<?xml version="1.0" standalone="no"?>
<!DOCTYPE svg PUBLIC "-//W3C//DTD SVG 20010904//EN"
 "http://www.w3.org/TR/2001/REC-SVG-20010904/DTD/svg10.dtd">
<svg version="1.0" xmlns="http://www.w3.org/2000/svg"
 width="512.000000pt" height="512.000000pt" viewBox="0 0 512.000000 512.000000"
 preserveAspectRatio="xMidYMid meet">
<metadata>
Created by potrace 1.14, written by Peter Selinger 2001-2017
</metadata>
<g transform="translate(0.000000,512.000000) scale(0.100000,-0.100000)"
fill="#000000" stroke="none">
<path d="M0 2560 l0 -2560 2560 0 2560 0 0 2560 0 2560 -2560 0 -2560 0 0
-2560z m2096 2374 c110 -35 211 -93 324 -186 96 -78 112 -100 112 -148 -1 -53
-16 -77 -59 -95 -33 -14 -39 -14 -77 5 -23 11 -63 41 -91 66 -87 79 -223 158
-263 153 -9 -1 -30 3 -47 10 -55 23 -170 -2 -205 -44 -7 -9 -10 -18 -6 -22 6
-6 27 -1 135 33 46 14 101 19 101 8 0 -3 -27 -34 -59 -68 -200 -208 -223 -236
-186 -236 8 0 15 -4 15 -10 0 -5 11 -12 25 -16 14 -3 25 -10 25 -14 0 -4 9
-10 21 -13 41 -11 7 -27 -56 -27 -75 0 -84 -12 -60 -80 8 -23 15 -52 15 -65 0
-12 3 -25 7 -29 7 -7 26 -72 39 -136 3 -14 10 -35 16 -46 5 -12 8 -29 6 -38
-3 -17 -65 34 -190 157 -65 62 -69 56 -79 -122 -10 -189 10 -516 45 -741 9
-58 20 -124 23 -148 3 -23 9 -45 13 -47 5 -3 46 39 92 92 188 219 479 513 653
658 33 28 69 58 80 69 11 10 45 37 75 59 30 22 57 44 60 48 3 3 66 50 140 103
74 53 140 99 145 103 6 5 27 17 48 28 20 11 37 23 37 27 0 5 5 8 10 8 6 0 27
11 48 23 92 59 228 128 327 168 11 4 36 14 55 22 140 58 315 97 434 97 159 0
279 -46 380 -145 71 -70 102 -127 131 -241 28 -113 12 -415 -26 -486 -5 -10
-9 -26 -9 -35 0 -22 -33 -130 -43 -139 -4 -4 -7 -15 -7 -24 0 -24 -35 -101
-60 -133 -18 -23 -29 -27 -71 -27 -69 0 -99 30 -99 98 0 26 4 52 8 57 4 6 16
37 26 70 10 33 21 67 25 75 7 13 25 85 52 208 13 59 11 248 -2 291 -31 96 -65
148 -119 179 -162 95 -464 29 -855 -188 -33 -18 -69 -38 -80 -44 -11 -6 -22
-14 -25 -17 -3 -3 -12 -8 -20 -12 -14 -6 -41 -23 -64 -39 -254 -180 -383 -277
-442 -333 -6 -5 -38 -32 -70 -60 -75 -62 -473 -461 -539 -539 -65 -76 -81 -95
-113 -131 -15 -16 -43 -50 -62 -75 -19 -25 -43 -54 -52 -64 -10 -11 -18 -23
-18 -27 0 -8 17 -72 46 -176 9 -32 18 -69 21 -83 2 -14 8 -34 13 -45 5 -11 16
-47 25 -80 23 -82 45 -146 56 -167 5 -10 9 -24 9 -33 0 -8 6 -29 14 -47 8 -18
27 -67 42 -108 15 -41 37 -99 50 -128 13 -29 24 -57 24 -62 0 -6 4 -18 10 -28
5 -9 17 -35 26 -57 70 -167 202 -426 283 -558 22 -37 41 -72 41 -77 0 -6 3
-10 8 -10 4 0 23 -27 42 -60 19 -33 38 -60 43 -60 4 0 7 -7 7 -15 0 -8 4 -15
9 -15 5 0 12 -8 15 -18 4 -10 14 -27 24 -38 10 -10 40 -48 67 -84 46 -60 235
-256 280 -290 42 -32 122 -80 133 -80 5 0 12 -3 14 -7 7 -17 106 -43 159 -43
72 0 129 25 188 83 40 39 97 135 122 202 35 95 41 125 79 387 13 87 13 370 0
495 -27 266 -43 387 -65 503 -9 47 -20 108 -25 135 -5 28 -16 82 -25 120 -9
39 -21 90 -26 114 -5 25 -13 59 -18 75 -5 17 -15 51 -21 76 -7 25 -18 63 -25
85 -51 159 -55 207 -21 241 33 33 94 37 136 9 21 -13 50 -61 50 -80 0 -9 11
-50 24 -93 22 -69 37 -121 66 -232 5 -19 17 -69 26 -110 9 -41 20 -91 24 -110
11 -47 38 -187 45 -230 3 -19 12 -80 20 -135 53 -344 56 -863 6 -1110 -33
-159 -83 -290 -157 -405 -66 -103 -158 -176 -264 -210 -55 -18 -245 -19 -262
-2 -7 7 -20 12 -29 12 -31 0 -209 90 -239 120 -3 3 -30 24 -60 47 -99 75 -246
233 -352 378 -32 44 -62 85 -67 91 -5 6 -28 42 -52 80 -24 38 -47 71 -51 72
-4 2 -8 8 -8 13 0 5 -11 26 -23 47 -13 20 -35 57 -49 82 -79 142 -92 166 -98
180 -4 8 -15 31 -25 50 -10 19 -22 42 -26 50 -8 16 -55 118 -96 210 -13 30
-28 63 -34 72 -5 10 -9 22 -9 28 0 5 -11 33 -24 62 -13 29 -29 67 -34 83 -6
17 -22 62 -37 100 -29 77 -126 369 -151 455 -30 102 -38 105 -84 42 -49 -68
-209 -329 -252 -410 -50 -95 -53 -100 -74 -147 -11 -22 -22 -41 -26 -43 -5 -2
-8 -10 -8 -18 0 -8 -4 -22 -10 -32 -20 -37 -90 -211 -90 -225 0 -5 -6 -23 -14
-40 -8 -18 -17 -43 -20 -57 -2 -14 -12 -54 -22 -90 -11 -41 -18 -119 -21 -213
-5 -161 4 -206 56 -277 45 -63 89 -87 185 -102 78 -11 210 4 316 37 30 9 78
19 105 22 43 3 54 1 78 -22 22 -21 27 -34 27 -74 0 -39 -5 -52 -27 -73 -16
-14 -39 -29 -53 -33 -14 -3 -34 -10 -45 -15 -27 -11 -134 -36 -220 -51 -74
-12 -187 -8 -268 10 -158 35 -283 154 -347 331 -17 50 -24 300 -10 385 6 39
14 88 17 110 3 22 9 45 14 50 4 6 11 30 15 53 4 23 11 45 15 48 5 3 9 14 9 24
0 11 6 34 14 52 8 18 26 65 41 103 44 115 140 317 200 420 20 33 41 71 47 85
7 14 15 27 19 30 3 3 14 21 25 40 10 19 23 39 27 45 23 29 117 179 117 187 0
4 4 8 8 8 5 0 18 17 30 38 12 20 35 53 52 72 16 19 33 43 36 53 3 9 9 17 14
17 10 0 25 40 21 55 -2 6 -7 33 -12 60 -4 28 -15 88 -25 135 -17 92 -23 128
-51 355 -14 115 -18 219 -18 445 0 162 4 315 9 339 l8 43 -33 -5 c-19 -3 -52
-10 -74 -16 -22 -5 -63 -16 -92 -23 -28 -7 -55 -16 -59 -21 -11 -10 -74 -9
-74 2 0 10 38 53 184 206 41 44 72 83 68 86 -4 4 -30 20 -59 36 -28 15 -52 33
-52 38 -1 6 29 12 66 15 62 5 68 7 71 29 2 13 -1 28 -7 34 -6 6 -11 20 -11 31
0 18 -23 106 -40 151 -7 18 -23 76 -37 133 -10 39 16 25 100 -57 160 -154 195
-177 204 -141 3 11 9 20 13 20 5 0 11 8 14 18 12 36 131 146 181 167 94 39
115 43 211 44 66 1 117 -4 150 -15z m2499 -24 c0 -31 -3 -35 -37 -45 -20 -5
-42 -15 -47 -20 -6 -6 -12 -92 -13 -210 -3 -186 -4 -200 -22 -203 -10 -2 -22
2 -27 10 -5 7 -6 96 -2 198 7 209 3 227 -50 232 -25 2 -33 8 -35 26 -7 50 -1
53 120 50 l113 -3 0 -35z m113 27 c6 -6 13 -26 17 -42 4 -17 10 -39 14 -50 12
-31 40 -128 43 -150 4 -23 27 -27 38 -5 5 8 16 42 25 75 10 33 21 68 26 77 5
10 9 25 9 33 0 9 7 30 16 46 12 24 21 30 42 27 31 -3 28 31 24 -328 l-2 -190
-25 0 -25 0 0 144 c0 136 -11 194 -25 129 -4 -15 -10 -37 -14 -48 -5 -11 -17
-49 -28 -85 -15 -47 -26 -66 -39 -68 -15 -2 -23 10 -38 60 -10 35 -22 72 -27
83 -4 11 -11 35 -14 53 -12 62 -23 19 -32 -123 -7 -131 -9 -140 -28 -140 -19
0 -20 8 -23 245 -1 134 0 250 3 257 6 17 49 17 63 0z m-3570 -1275 c27 -24 32
-36 32 -74 0 -66 -31 -90 -145 -111 -49 -10 -99 -17 -109 -17 -11 0 -33 -4
-50 -9 -17 -5 -60 -17 -96 -26 -36 -9 -72 -20 -80 -25 -9 -4 -30 -11 -48 -14
-17 -4 -34 -12 -37 -17 -4 -5 -15 -9 -26 -9 -10 0 -19 -4 -19 -10 0 -5 -5 -10
-12 -10 -40 0 -174 -115 -192 -165 -30 -87 -31 -103 -11 -180 25 -98 73 -172
188 -292 87 -90 99 -113 85 -156 -15 -46 -55 -77 -100 -77 -21 0 -38 5 -38 10
0 6 -6 10 -14 10 -17 0 -133 124 -191 205 -105 147 -130 221 -130 380 1 114 2
123 32 186 63 131 189 232 398 318 49 20 187 60 260 74 235 46 260 47 303 9z
m2237 -311 c5 -5 37 -18 70 -29 34 -11 74 -26 90 -33 68 -27 81 -32 110 -45
17 -7 46 -19 65 -27 147 -63 444 -210 460 -228 3 -3 12 -8 20 -12 18 -8 26
-13 155 -96 55 -36 106 -71 113 -78 7 -7 16 -13 20 -13 4 0 19 -10 33 -23 15
-12 48 -40 75 -62 127 -103 251 -247 309 -359 58 -113 68 -151 68 -260 0 -149
-34 -231 -144 -338 -89 -88 -182 -143 -341 -199 -101 -35 -143 -37 -182 -6
-24 20 -28 30 -29 75 -1 45 3 55 26 74 15 12 59 32 99 45 169 54 300 144 347
238 33 66 26 174 -15 255 -16 30 -31 57 -34 60 -3 3 -14 18 -24 34 -41 65
-182 206 -271 271 -22 17 -46 36 -54 43 -8 8 -33 25 -55 39 -23 14 -43 29 -46
32 -3 3 -22 15 -42 26 -21 11 -38 22 -38 26 0 4 -8 9 -17 12 -10 3 -40 19 -68
36 -27 16 -70 40 -95 53 -25 13 -46 26 -48 31 -2 4 -9 7 -15 7 -6 0 -52 20
-101 44 -104 50 -162 76 -271 121 -22 9 -48 21 -57 26 -10 5 -23 9 -29 9 -6 0
-25 6 -42 14 -18 8 -54 22 -82 31 -119 41 -145 63 -145 123 0 42 27 90 54 96
28 6 118 -3 131 -13z m-817 -184 c6 -7 15 -31 21 -52 5 -22 17 -65 26 -95 9
-30 19 -68 22 -85 3 -16 9 -35 14 -40 4 -6 11 -30 15 -53 11 -72 28 -71 146 2
9 6 20 7 24 3 8 -7 -5 -37 -44 -101 -24 -38 -24 -40 -6 -53 11 -8 30 -16 44
-19 14 -3 50 -12 80 -20 30 -8 73 -20 95 -25 22 -6 60 -17 85 -25 25 -8 55
-14 68 -14 46 0 16 -36 -39 -46 -19 -3 -43 -9 -54 -14 -11 -4 -49 -16 -85 -25
-36 -10 -84 -24 -108 -31 -23 -8 -48 -14 -55 -14 -7 0 -20 -7 -30 -14 -18 -14
-17 -16 7 -55 14 -22 26 -45 26 -51 0 -5 5 -10 10 -10 6 0 10 -9 10 -20 0 -11
-4 -20 -10 -20 -10 0 -100 48 -114 61 -22 20 -30 5 -61 -106 -9 -33 -23 -82
-31 -109 -8 -26 -14 -55 -14 -62 0 -8 -4 -22 -9 -32 -6 -9 -13 -35 -16 -56 -6
-36 -8 -38 -23 -23 -16 17 -39 84 -49 145 -3 18 -9 35 -14 38 -5 3 -9 14 -9
24 0 11 -6 39 -14 62 -8 24 -16 54 -19 68 -8 35 -35 68 -44 54 -14 -19 -122
-74 -128 -65 -4 8 21 67 35 81 3 3 12 18 20 33 13 27 13 30 -5 40 -11 7 -40
17 -65 23 -98 25 -206 55 -230 64 -14 4 -42 11 -63 15 -37 6 -38 7 -23 24 9
10 31 21 49 25 31 5 73 17 190 52 28 8 69 19 90 23 69 15 73 29 33 99 -20 33
-36 65 -36 71 0 12 27 15 32 4 2 -5 27 -21 57 -37 52 -28 55 -28 68 -10 8 10
16 30 19 44 3 14 12 47 20 74 7 26 14 55 14 62 0 8 4 22 9 32 9 18 30 98 39
145 5 30 14 34 30 14z"/>
<path d="M2514 2673 c-42 -8 -68 -49 -68 -105 0 -44 4 -54 32 -79 47 -43 102
-41 148 5 28 28 34 42 34 75 0 72 -69 121 -146 104z"/>
</g>
</svg>
